<?xml version="1.0" encoding="utf-8"?>
<!-- Generator: Adobe Illustrator 25.3.1, SVG Export Plug-In . SVG Version: 6.00 Build 0)  -->
<svg version="1.1" id="Layer_1" xmlns="http://www.w3.org/2000/svg" xmlns:xlink="http://www.w3.org/1999/xlink" x="0px" y="0px"
	 viewBox="0 0 512 512" style="enable-background:new 0 0 512 512;" xml:space="preserve">
<style type="text/css">
	.st0{fill:#08CFBB;}
</style>
<g>
	<g>
		<path class="st0" d="M256,365.5c-6.8,0-13.5-0.1-20.2-0.2v29.4c0,11.2,9,20.2,20.2,20.2c11.2,0,20.2-9,20.2-20.2v-29.4
			C269.5,365.4,262.8,365.5,256,365.5z"/>
	</g>
</g>
<g>
	<g>
		<path class="st0" d="M122.8,354.7L111.2,388c-3.7,10.5,1.9,22.1,12.4,25.8c2.2,0.8,4.5,1.1,6.7,1.1c8.4,0,16.2-5.2,19.1-13.5
			l14.3-40.9C149.5,358.9,135.9,357,122.8,354.7z"/>
	</g>
</g>
<g>
	<g>
		<path class="st0" d="M400.8,388l-11.7-33.3c-13.1,2.3-26.7,4.2-40.8,5.8l14.3,40.9c2.9,8.3,10.7,13.5,19.1,13.5
			c2.2,0,4.5-0.4,6.7-1.1C399,410.1,404.5,398.6,400.8,388z"/>
	</g>
</g>
<g>
	<g>
		<path class="st0" d="M398.1,162.9c3.7,12.9,5.6,26.4,5.6,40.2c0,16-9.4,30.4-24,36.9c-2.3,1-56.1,24.6-122.4,24.6
			c-66.4,0-120.2-23.6-122.4-24.6c-14.6-6.5-24-21-24-36.9c0-14,2-27.7,5.7-40.7C62.6,173.2,0,194.9,0,237.4
			c0,28.7,28.2,51.2,83.7,67.1c15.9,4.6,33.6,8.4,52.6,11.5c13.1,2.1,26.8,3.9,41,5.3c18.8,1.8,38.4,3,58.5,3.5
			c6.7,0.2,13.4,0.2,20.2,0.2c6.8,0,13.5-0.1,20.2-0.2c20.1-0.5,39.7-1.7,58.5-3.5c14.2-1.4,27.9-3.2,41-5.3
			c19-3.1,36.7-7,52.6-11.5c55.5-15.9,83.7-38.5,83.7-67.1C512,195.5,450.9,173.8,398.1,162.9z"/>
	</g>
</g>
<g>
	<g>
		<path class="st0" d="M353.1,157.8c-2.9-6.2-6.4-12-10.4-17.5c-4.1-5.6-8.8-10.8-13.9-15.5c-18.9-17.2-43.9-27.8-71.5-27.8
			c-27.4,0-52.5,10.4-71.3,27.6c-5.1,4.7-9.8,9.8-13.9,15.4c-4,5.4-7.6,11.3-10.5,17.4c-6.6,13.8-10.3,29.3-10.3,45.6
			c0,0,47.5,21.1,106,21.1c58.5,0,106-21.1,106-21.1C363.2,186.9,359.6,171.5,353.1,157.8z"/>
	</g>
</g>
</svg>
